<svg id="svg8" xmlns="http://www.w3.org/2000/svg" xmlns:xlink="http://www.w3.org/1999/xlink" viewBox="0 0 192 192"><defs><style>.cls-1,.cls-5{fill:#fff;}.cls-1{fill-opacity:0;}.cls-2{fill:#f6f6f6;}.cls-3{fill:#4385f7;}.cls-4{fill:url(#linear-gradient);}.cls-6{fill:url(#radial-gradient);}</style><linearGradient id="linear-gradient" x1="-1451.69" y1="5923.52" x2="-1315.06" y2="5786.89" gradientTransform="matrix(0.44, 0, 0, -0.44, 1415.61, 2856.13)" gradientUnits="userSpaceOnUse"><stop offset="0" stop-opacity="0.11"/><stop offset="1" stop-opacity="0"/></linearGradient><radialGradient id="radial-gradient" cx="-146.68" cy="3070.91" r="40.39" gradientTransform="matrix(1.76, 0, 0, -1.76, 1051.1, 5699.01)" gradientUnits="userSpaceOnUse"><stop offset="0" stop-color="#fff" stop-opacity="0"/><stop offset="0.87" stop-opacity="0"/><stop offset="1" stop-opacity="0.21"/></radialGradient></defs><title>master</title><g id="layer2"><g id="g4882"><g id="g1600"><rect id="rect1582" class="cls-1" width="192" height="192"/><g id="g1598"><path id="circle1584" class="cls-2" d="M788.21,206.94c54.64-3,100.38,44.53,91.68,101.9a86.72,86.72,0,0,1-63.2,70.6c-56.06,14.95-108.36-25.26-111.38-79.89A87.88,87.88,0,0,1,788.21,206.94Z" transform="translate(-697.06 -198.69)"/><path id="circle1586" class="cls-2" d="M790.81,228.45a66.41,66.41,0,1,1-64.21,64.19A66.41,66.41,0,0,1,790.81,228.45Z" transform="translate(-697.06 -198.69)"/><path id="path1588" class="cls-3" d="M793,228.41c-1.37,0-2.75.06-4.11.15l-1,.06q-2.73.23-5.45.66l-1.7.3c-1.4.27-2.79.58-4.17.94-1.05.27-2.08.56-3.12.89s-1.77.57-2.65.88c-1.57.56-3.12,1.17-4.64,1.85l26,57,3.59,8.71,51.73,32.83a66.31,66.31,0,0,0,11.89-37.88c0-1.55,0-3.11-.16-4.66a.13.13,0,0,0,0-.06A66.43,66.43,0,0,0,845,253.55l0,0c-1.36-1.7-2.79-3.34-4.31-4.9a.8.8,0,0,0-.13-.13,63.6,63.6,0,0,0-4.73-4.41l-.11-.1A66.42,66.42,0,0,0,793,228.41Z" transform="translate(-697.06 -198.69)"/><path id="path1590" class="cls-4" d="M819.32,270,793,294.82l-32.91,4.26,57.43,57.43a66.43,66.43,0,0,0,40.42-47.95Z" transform="translate(-697.06 -198.69)"/><path id="path1592" class="cls-5" d="M816.21,268.79a4.33,4.33,0,0,0-3,1.31L792,291.31H762.85a4.35,4.35,0,0,0-4.43,4.7,4.44,4.44,0,0,0,4.22,4h33l23.76-23.76a4.35,4.35,0,0,0-3.17-7.46Z" transform="translate(-697.06 -198.69)"/><path id="circle1594" class="cls-6" d="M790.81,228.45a66.41,66.41,0,1,1-64.21,64.19A66.41,66.41,0,0,1,790.81,228.45Z" transform="translate(-697.06 -198.69)"/><path id="path1596" class="cls-3" d="M763.05,213.2a10.89,10.89,0,0,0-5,1A87.78,87.78,0,1,0,864.87,345.38a10.86,10.86,0,1,0-17.73-12.56,65.88,65.88,0,0,1-26.27,21.87,12.88,12.88,0,0,0-1.51.54,66.55,66.55,0,0,1-20.05,5.21,65.73,65.73,0,0,1-44.07-11.92,10.78,10.78,0,0,0-2.17-1.22,66.14,66.14,0,0,1,13.67-113.22,10.87,10.87,0,0,0-3.69-20.88Z" transform="translate(-697.06 -198.69)"/></g></g></g></g></svg>